# xmcd
#
# Track frame offsets:
#	150
#	15874
#	30495
#	40419
#	54592
#	72588
#	85519
#	103229
#	118082
#	133109
#	144621
#	160563
#	176067
#	190401
#
# Disc length: 2663 seconds
#
# Revision: 1
# Processed by: cddbd v1.4PL0 Copyright (c) Steve Scherf et al.
# Submitted via: audiograbber 1.81.02
#
DISCID=be0a650e
DTITLE=Thom Shepherd - Could Be Worse
DYEAR=1900
DGENRE=Country
TTITLE0=Could Be Worse
TTITLE1=Loving on Borrowed Time
TTITLE2=Little Hope Baptist Church
TTITLE3=Choose Me Or Lose Me
TTITLE4=Getaway Car
TTITLE5=Treat Me Like A Dog
TTITLE6=Her Love
TTITLE7=Run
TTITLE8=No Hope In Ashes
TTITLE9=Bye George
TTITLE10=Blue Ridge
TTITLE11=For Just A Moment
TTITLE12=Kiss Your Past Goodbye
TTITLE13=A Few Words About Mobile Homes
EXTD=
EXTT0=
EXTT1=
EXTT2=
EXTT3=
EXTT4=
EXTT5=
EXTT6=
EXTT7=
EXTT8=
EXTT9=
EXTT10=
EXTT11=
EXTT12=
EXTT13=
PLAYORDER=
